<svg xmlns="http://www.w3.org/2000/svg" width="33" height="40" viewBox="0 0 33 40">
  <metadata><?xpacket begin="﻿" id="W5M0MpCehiHzreSzNTczkc9d"?>
<x:xmpmeta xmlns:x="adobe:ns:meta/" x:xmptk="Adobe XMP Core 5.6-c138 79.159824, 2016/09/14-01:09:01        ">
   <rdf:RDF xmlns:rdf="http://www.w3.org/1999/02/22-rdf-syntax-ns#">
      <rdf:Description rdf:about=""/>
   </rdf:RDF>
</x:xmpmeta>
                                                                                                    
                                                                                                    
                                                                                                    
                                                                                                    
                                                                                                    
                                                                                                    
                                                                                                    
                                                                                                    
                                                                                                    
                                                                                                    
                                                                                                    
                                                                                                    
                                                                                                    
                                                                                                    
                                                                                                    
                                                                                                    
                                                                                                    
                                                                                                    
                                                                                                    
                                                                                                    
                           
<?xpacket end="w"?></metadata>
<defs>
    <style>
      .cls-1 {
        fill: #ff8207;
        fill-rule: evenodd;
      }
    </style>
  </defs>
  <path id="Globe_2" data-name="Globe 2" class="cls-1" d="M1472.94,2388.04a19.192,19.192,0,0,1-7.13-1.36,1.257,1.257,0,0,1-.7-1.63,1.271,1.271,0,0,1,1.65-.69,16.645,16.645,0,0,0,6.18,1.18c9.58,0,16.53-6.88,16.53-16.36a15.964,15.964,0,0,0-8.16-13.85,1.257,1.257,0,0,1-.45-1.72,1.286,1.286,0,0,1,1.74-.44,18.461,18.461,0,0,1,9.4,16.01C1492,2380.11,1483.98,2388.04,1472.94,2388.04Zm-0.01-30.06a11.281,11.281,0,1,1-11.4,11.32,11.391,11.391,0,0,1,11.4-11.32m0-2.5a13.781,13.781,0,1,0,13.93,13.82,13.892,13.892,0,0,0-13.93-13.82h0Zm2.54,36.19a1.289,1.289,0,0,1-1.25,1.33h0a1.29,1.29,0,0,1-1.26-1.33v-4.5a1.3,1.3,0,0,1,1.26-1.33h0a1.3,1.3,0,0,1,1.25,1.33v4.5Zm5.13,0.08a1.286,1.286,0,0,1-1.32,1.25h-9.99a1.286,1.286,0,0,1-1.32-1.25h0a1.286,1.286,0,0,1,1.32-1.25h9.99a1.286,1.286,0,0,1,1.32,1.25h0Z" transform="translate(-1459 -2353)"/>
</svg>
