<svg xmlns="http://www.w3.org/2000/svg" width="40.03" height="40" viewBox="0 0 40.03 40">
  <metadata><?xpacket begin="﻿" id="W5M0MpCehiHzreSzNTczkc9d"?>
<x:xmpmeta xmlns:x="adobe:ns:meta/" x:xmptk="Adobe XMP Core 5.6-c138 79.159824, 2016/09/14-01:09:01        ">
   <rdf:RDF xmlns:rdf="http://www.w3.org/1999/02/22-rdf-syntax-ns#">
      <rdf:Description rdf:about=""/>
   </rdf:RDF>
</x:xmpmeta>
                                                                                                    
                                                                                                    
                                                                                                    
                                                                                                    
                                                                                                    
                                                                                                    
                                                                                                    
                                                                                                    
                                                                                                    
                                                                                                    
                                                                                                    
                                                                                                    
                                                                                                    
                                                                                                    
                                                                                                    
                                                                                                    
                                                                                                    
                                                                                                    
                                                                                                    
                                                                                                    
                           
<?xpacket end="w"?></metadata>
<defs>
    <style>
      .cls-1 {
        fill: #ff8207;
        fill-rule: evenodd;
      }
    </style>
  </defs>
  <path id="Rocket" class="cls-1" d="M1113.3,2392.8l-1.22.02-0.02-1.27c0-6.26,1.26-7.57,3.93-8.91a10.65,10.65,0,0,0,2.02-1.15l1.52,1.93a13.558,13.558,0,0,1-2.42,1.45c-1.61.81-2.41,1.26-2.54,5.46,4.37-.16,4.86-1.24,5.64-2.87a13.7,13.7,0,0,1,1.21-2.11l1.85,1.68a15.749,15.749,0,0,0-.88,1.7C1121.15,2391.3,1119.92,2392.8,1113.3,2392.8Zm26.22-22.4a5,5,0,1,1,5.01-5A5,5,0,0,1,1139.52,2370.4Zm0-7.49a2.5,2.5,0,1,0,2.5,2.49A2.505,2.505,0,0,0,1139.52,2362.91Zm-10.86,30.1a1.209,1.209,0,0,1-.38-0.06,1.255,1.255,0,0,1-.83-0.9l-1.52-6.42-2.82-3.12c-1.35-1.5-2.2-2.44-2.7-3.06l-7.45-1.7a1.242,1.242,0,0,1-.65-2.04l4.57-4.96a1.273,1.273,0,0,1,.93-0.41h6.94c0.44-.78.95-1.8,1.48-2.86,1.38-2.74,2.94-6.06,4.51-7.89a15.184,15.184,0,0,1,6.36-4.56,36.518,36.518,0,0,1,13.7-2,1.256,1.256,0,0,1,1.15,1.17c0.02,0.33.47,8.09-1.63,13.73a13.322,13.322,0,0,1-4.24,6.15c-1.74,1.56-5.96,3.52-8.79,5.1-1.03.58-2.13,1.17-2.76,1.56v6.43a1.245,1.245,0,0,1-.43.94l-4.62,4.6A1.293,1.293,0,0,1,1128.66,2393.01Zm-6.69-15.49c0.27,0.3,3.73,4.14,6.03,6.68a1.33,1.33,0,0,1,.29.55l1.12,4.73,2.63-2.88v-6.52a1.233,1.233,0,0,1,.46-0.96,33.069,33.069,0,0,1,3.58-2.12c2.57-1.44,6.8-3.41,8.35-4.78a10.942,10.942,0,0,0,3.55-5.16c1.47-3.95,1.56-9.28,1.52-11.58a34.085,34.085,0,0,0-11.53,1.88,12.593,12.593,0,0,0-5.33,3.85c-1.38,1.6-2.93,4.9-4.18,7.39-0.74,1.47-1.38,2.74-1.93,3.63a1.23,1.23,0,0,1-1.06.6h-7.09l-2.81,2.96,5.72,1.3A1.288,1.288,0,0,1,1121.97,2377.52Z" transform="translate(-1111.97 -2353)"/>
</svg>
