<svg xmlns="http://www.w3.org/2000/svg" width="40" height="40.06" viewBox="0 0 40 40.06">
  <metadata><?xpacket begin="﻿" id="W5M0MpCehiHzreSzNTczkc9d"?>
<x:xmpmeta xmlns:x="adobe:ns:meta/" x:xmptk="Adobe XMP Core 5.6-c138 79.159824, 2016/09/14-01:09:01        ">
   <rdf:RDF xmlns:rdf="http://www.w3.org/1999/02/22-rdf-syntax-ns#">
      <rdf:Description rdf:about=""/>
   </rdf:RDF>
</x:xmpmeta>
                                                                                                    
                                                                                                    
                                                                                                    
                                                                                                    
                                                                                                    
                                                                                                    
                                                                                                    
                                                                                                    
                                                                                                    
                                                                                                    
                                                                                                    
                                                                                                    
                                                                                                    
                                                                                                    
                                                                                                    
                                                                                                    
                                                                                                    
                                                                                                    
                                                                                                    
                                                                                                    
                           
<?xpacket end="w"?></metadata>
<defs>
    <style>
      .cls-1 {
        fill: #ff8207;
        fill-rule: evenodd;
      }
    </style>
  </defs>
  <path id="Layers" class="cls-1" d="M795.01,2608.08a1.17,1.17,0,0,1-.6-0.16l-18.54-10.13a1.264,1.264,0,0,1,.036-2.23l18.734-9.45a1.244,1.244,0,0,1,1.127,0l18.542,9.46a1.255,1.255,0,0,1,.027,2.22L795.6,2607.93A1.245,1.245,0,0,1,795.01,2608.08Zm-15.848-11.35,15.851,8.67,16.038-8.68-15.85-8.08Zm34.934,8.05-3.706-1.89-2.675,1.45,3.121,1.59-16.037,8.68-15.852-8.67,3.33-1.68-2.669-1.46-3.914,1.98a1.255,1.255,0,0,0-.037,2.22l18.54,10.14a1.266,1.266,0,0,0,.6.15,1.249,1.249,0,0,0,.593-0.15L814.123,2607A1.255,1.255,0,0,0,814.1,2604.78Zm0,8.78-3.511-1.73-2.675,1.44,2.926,1.44-16.037,8.68-15.852-8.67,3.1-1.41-2.668-1.46-3.68,1.71a1.251,1.251,0,0,0-.688,1.1,1.27,1.27,0,0,0,.651,1.12l18.54,10.13a1.17,1.17,0,0,0,.6.16,1.249,1.249,0,0,0,.593-0.15l18.735-10.14A1.255,1.255,0,0,0,814.1,2613.56Z" transform="translate(-775 -2586)"/>
</svg>
