<svg xmlns="http://www.w3.org/2000/svg" width="40.031" height="40" viewBox="0 0 40.031 40">
  <metadata><?xpacket begin="﻿" id="W5M0MpCehiHzreSzNTczkc9d"?>
<x:xmpmeta xmlns:x="adobe:ns:meta/" x:xmptk="Adobe XMP Core 5.6-c138 79.159824, 2016/09/14-01:09:01        ">
   <rdf:RDF xmlns:rdf="http://www.w3.org/1999/02/22-rdf-syntax-ns#">
      <rdf:Description rdf:about=""/>
   </rdf:RDF>
</x:xmpmeta>
                                                                                                    
                                                                                                    
                                                                                                    
                                                                                                    
                                                                                                    
                                                                                                    
                                                                                                    
                                                                                                    
                                                                                                    
                                                                                                    
                                                                                                    
                                                                                                    
                                                                                                    
                                                                                                    
                                                                                                    
                                                                                                    
                                                                                                    
                                                                                                    
                                                                                                    
                                                                                                    
                           
<?xpacket end="w"?></metadata>
<defs>
    <style>
      .cls-1 {
        fill: #ff8207;
        fill-rule: evenodd;
      }
    </style>
  </defs>
  <path id="Magic_wand" data-name="Magic wand" class="cls-1" d="M795.227,2378.22a1.3,1.3,0,0,1-1.171-.83l-2.48-6.82-6.815-2.45a1.259,1.259,0,0,1-.348-2.17l5.7-4.47,0.215-7.26a1.259,1.259,0,0,1,.678-1.08,1.225,1.225,0,0,1,1.264.08l6.006,4.06,6.95-2.04a1.237,1.237,0,0,1,1.228.31,1.258,1.258,0,0,1,.32,1.23l-1.992,6.99,4,6a1.256,1.256,0,0,1-.985,1.96l-7.16.25-4.429,5.75A1.245,1.245,0,0,1,795.227,2378.22Zm-7.5-11.69,5.239,1.88a1.257,1.257,0,0,1,.751.75l1.906,5.25,3.4-4.42a1.287,1.287,0,0,1,.942-0.49l5.563-.19-3.136-4.62a1.263,1.263,0,0,1-.169-1.05l1.532-5.37-5.344,1.57a1.286,1.286,0,0,1-1.045-.16l-4.616-3.12-0.166,5.58a1.263,1.263,0,0,1-.478.95Zm-17.5,26.47a1.255,1.255,0,0,1-.881-2.14L790,2370.13a1.24,1.24,0,0,1,1.762,0,1.257,1.257,0,0,1,0,1.77L771.1,2392.63A1.261,1.261,0,0,1,770.223,2393Z" transform="translate(-768.969 -2353)"/>
</svg>
