<svg xmlns="http://www.w3.org/2000/svg" width="50" height="40" viewBox="0 0 50 40"><defs><style>.cls-1{fill:#ff8207;fill-rule:evenodd}</style></defs><path id="Monitor" class="cls-1" d="M461.875 2356.08v26.15h-43.75v-26.15h43.75m0-3.08h-43.75a3.115 3.115 0 0 0-3.125 3.08v26.15a3.106 3.106 0 0 0 3.125 3.07h43.75a3.106 3.106 0 0 0 3.125-3.07v-26.15a3.115 3.115 0 0 0-3.125-3.08zm-20.313 30.77v6.15h7.813a1.54 1.54 0 1 1 0 3.08h-18.75a1.54 1.54 0 1 1 0-3.08h7.812v-6.15h3.125z" transform="translate(-415 -2353)"/></svg>