<svg xmlns="http://www.w3.org/2000/svg" width="40" height="40.06" viewBox="0 0 40 40.06">
  <metadata><?xpacket begin="﻿" id="W5M0MpCehiHzreSzNTczkc9d"?>
<x:xmpmeta xmlns:x="adobe:ns:meta/" x:xmptk="Adobe XMP Core 5.6-c138 79.159824, 2016/09/14-01:09:01        ">
   <rdf:RDF xmlns:rdf="http://www.w3.org/1999/02/22-rdf-syntax-ns#">
      <rdf:Description rdf:about=""/>
   </rdf:RDF>
</x:xmpmeta>
                                                                                                    
                                                                                                    
                                                                                                    
                                                                                                    
                                                                                                    
                                                                                                    
                                                                                                    
                                                                                                    
                                                                                                    
                                                                                                    
                                                                                                    
                                                                                                    
                                                                                                    
                                                                                                    
                                                                                                    
                                                                                                    
                                                                                                    
                                                                                                    
                                                                                                    
                                                                                                    
                           
<?xpacket end="w"?></metadata>
<defs>
    <style>
      .cls-1 {
        fill: #ff8207;
        fill-rule: evenodd;
      }
    </style>
  </defs>
  <path id="Note" class="cls-1" d="M1481.03,2592.28H1463.5v31.28h28.7v-15.94l2.5-2.39v18.33a2.509,2.509,0,0,1-2.5,2.51h-28.7a2.509,2.509,0,0,1-2.5-2.51v-31.28a2.5,2.5,0,0,1,2.5-2.51h19.99l0.07,0.07Zm14.3-3.78a2.886,2.886,0,0,1,1.97.93,3.254,3.254,0,0,1,1.19,2.16,3.372,3.372,0,0,1-1.17,2.28c-0.7.72-6.14,6.11-16.17,16.02l-0.77.76c-1.15.35-3.9,1.24-5.98,1.92,0.67-2.22,1.47-4.9,1.83-6.17,2.14-2.15,16.32-16.34,16.86-16.87a3.5,3.5,0,0,1,2.24-1.03m0-2.5a5.964,5.964,0,0,0-4,1.75c-0.59.58-17.13,17.15-17.13,17.15a1.075,1.075,0,0,0-.28.47c-0.44,1.66-2.69,9.03-2.71,9.11a1.055,1.055,0,0,0,1,1.37,1.127,1.127,0,0,0,.32-0.05c0.08-.03,7.67-2.49,8.92-2.86a1.059,1.059,0,0,0,.43-0.26c0.79-.78,16-15.79,17.23-17.07a5.716,5.716,0,0,0,1.88-4.07,5.6,5.6,0,0,0-1.96-3.91,5.246,5.246,0,0,0-3.7-1.63h0Z" transform="translate(-1461 -2586)"/>
</svg>
