<svg xmlns="http://www.w3.org/2000/svg" width="40" height="40.06" viewBox="0 0 40 40.06"><defs><style>.cls-1{fill:#ff8207;fill-rule:evenodd}</style></defs><path id="Settings" class="cls-1" d="M461.519 2602.24l-3.208-.71a14.564 14.564 0 0 0-.953-2.31l1.736-2.9c.648-1.03.975-2.56 0-3.54l-1.769-1.77a2.928 2.928 0 0 0-3.618-.11l-2.814 1.8a14.232 14.232 0 0 0-2.286-.96l-.72-3.26a2.936 2.936 0 0 0-2.637-2.48h-2.5c-1.381 0-2.227 1.31-2.5 2.5l-.8 3.22a14.832 14.832 0 0 0-2.435 1.02l-2.884-1.84a2.93 2.93 0 0 0-3.619.11l-1.768 1.77c-.976.98-.649 2.51 0 3.54l1.826 3.05a14.807 14.807 0 0 0-.88 2.16l-3.208.71a2.933 2.933 0 0 0-2.48 2.64v2.5c0 1.39 1.308 2.23 2.5 2.51l3.248.81a15.421 15.421 0 0 0 .823 2l-1.829 3.05c-.648 1.04-.975 2.56 0 3.54l1.769 1.77a2.928 2.928 0 0 0 3.618.11l2.891-1.84a14.982 14.982 0 0 0 2.449 1.03l.8 3.2c.274 1.19 1.12 2.51 2.5 2.51h2.5a2.944 2.944 0 0 0 2.637-2.49l.721-3.26a14.861 14.861 0 0 0 2.26-.95l2.82 1.8a2.928 2.928 0 0 0 3.618-.11l1.769-1.77c.975-.98.648-2.5 0-3.54l-1.737-2.9a15.088 15.088 0 0 0 .895-2.15l3.248-.81c1.191-.28 2.5-1.12 2.5-2.51v-2.5a2.933 2.933 0 0 0-2.483-2.64zm-.018 4.97a1.8 1.8 0 0 1-.56.24l-4.635 1.16-.43 1.31a12.24 12.24 0 0 1-.747 1.79l-.627 1.24 2.448 4.09a1.762 1.762 0 0 1 .252.6l-1.645 1.65a1.923 1.923 0 0 1-.426-.18l-4.115-2.63-1.279.67a12.982 12.982 0 0 1-1.879.79l-1.362.44-1.03 4.66a.939.939 0 0 1-.272.52h-2.249a1.592 1.592 0 0 1-.239-.56l-1.151-4.61-1.331-.42a12.761 12.761 0 0 1-2.037-.86l-1.286-.68-4.115 2.63a.975.975 0 0 1-.512.18l-1.639-1.6a1.66 1.66 0 0 1 .226-.56l2.557-4.27-.608-1.23a12.337 12.337 0 0 1-.685-1.65l-.429-1.32-4.59-1.15a1.782 1.782 0 0 1-.606-.25v-2.33a4.528 4.528 0 0 1 .419-.18l4.716-1.04.433-1.38a11.908 11.908 0 0 1 .735-1.79l.608-1.23-2.53-4.22a1.874 1.874 0 0 1-.252-.61l1.644-1.65a1.872 1.872 0 0 1 .425.18l4.192 2.67 1.284-.67a12.434 12.434 0 0 1 2.027-.86l1.329-.42 1.14-4.57a1.82 1.82 0 0 1 .25-.61h2.325c-.017.03.144.25.177.43l1.05 4.75 1.361.44a12.26 12.26 0 0 1 1.9.8l1.279.67 4.029-2.58a.983.983 0 0 1 .512-.18l1.641 1.6a1.7 1.7 0 0 1-.227.57l-2.475 4.12.631 1.24a12.146 12.146 0 0 1 .794 1.91l.432 1.39 4.62 1.02a.907.907 0 0 1 .544.31zm-17.484 6.35a7.525 7.525 0 1 1 7.529-7.53 7.54 7.54 0 0 1-7.529 7.53zm-.017-12.54a5.01 5.01 0 1 0 5 5.01 5.013 5.013 0 0 0-5-5.01z" transform="translate(-424 -2586)"/></svg>