<svg xmlns="http://www.w3.org/2000/svg" width="40" height="40.06" viewBox="0 0 40 40.06"><defs><style>.cls-1{fill:#ff8207;fill-rule:evenodd}</style></defs><path id="Wrench" class="cls-1" d="M1161.28 2594.46a1.183 1.183 0 0 0-1.27.19l-6.3 5.66-5.68-5.84 5.62-6.51a1.181 1.181 0 0 0 .19-1.27 1.159 1.159 0 0 0-1.07-.69h-.34c-3.48 0-9.48.3-12.16 3.02l-.54.54c-2.86 2.92-3.37 7.72-1.86 11.36l-14.41 14.73a5.1 5.1 0 0 0 0 7.15l1.76 1.79a4.914 4.914 0 0 0 7.03 0l14.63-14.77a10.924 10.924 0 0 0 4.87 1.24 9.5 9.5 0 0 0 6.81-2.91l.53-.54c2.91-2.95 2.87-9.27 2.88-12.05a1.219 1.219 0 0 0-.69-1.1zm-3.93 11.46l-.47.54a7.091 7.091 0 0 1-5.13 2.09 8.8 8.8 0 0 1-3.1-.54 7.369 7.369 0 0 1-2.15-1.38l-16.01 16.17a2.463 2.463 0 0 1-3.52 0l-1.75-1.79a2.554 2.554 0 0 1 0-3.57l15.64-15.98a7.421 7.421 0 0 1-1.1-2.46c-.6-2.44-.25-5.81 1.64-7.75l.54-.54c1.62-1.65 5.83-2.14 8.16-2.28l-4.58 5.3a1.215 1.215 0 0 0 .05 1.64l7.24 7.43a1.16 1.16 0 0 0 1.62.06l5.1-4.59c-.15 2.47-.63 6.07-2.18 7.65z" transform="translate(-1122 -2586)"/></svg>